<?xml version="1.0" encoding="UTF-8"?> <svg xmlns="http://www.w3.org/2000/svg" width="1150pt" height="310pt" viewBox="120 100 1150 310" version="1.1"><g id="#101c85ff"><path fill="#101c85" opacity="1.00" d=" M 213.94 119.86 C 242.83 105.78 276.39 101.59 307.88 108.00 C 322.73 110.95 337.09 116.26 350.37 123.54 C 351.62 124.25 352.75 125.14 353.88 126.05 C 349.60 126.48 345.29 126.29 341.00 126.32 C 299.33 126.31 257.67 126.32 216.00 126.32 C 211.73 126.29 207.45 126.47 203.20 126.06 C 206.40 123.39 210.24 121.71 213.94 119.86 Z"></path><path fill="#101c85" opacity="1.00" d=" M 190.16 134.12 C 192.78 131.47 196.67 132.30 200.01 132.19 C 252.34 132.23 304.67 132.23 357.00 132.19 C 360.10 132.38 363.75 131.42 366.30 133.74 C 377.07 141.84 387.10 151.11 395.21 161.91 C 334.16 162.02 273.11 161.95 212.05 161.94 C 213.02 158.66 213.84 155.33 214.25 151.93 C 211.36 152.17 208.18 151.98 205.62 153.56 C 204.31 156.03 204.02 159.93 200.60 160.37 C 196.56 160.95 191.18 161.43 188.54 157.58 C 185.73 152.94 186.44 147.20 186.98 142.06 C 187.51 139.28 187.38 135.74 190.16 134.12 Z"></path><path fill="#101c85" opacity="1.00" d=" M 157.18 167.91 C 164.78 167.72 172.39 167.89 180.00 167.80 C 186.59 167.71 193.52 169.01 198.82 173.18 C 202.38 176.11 207.24 175.31 211.34 176.80 C 215.09 178.44 215.95 182.85 218.01 185.98 C 219.91 189.28 223.51 190.91 226.81 192.44 C 228.90 191.19 231.26 188.98 233.84 189.78 C 235.94 191.81 235.74 194.91 235.86 197.59 C 204.25 197.58 172.64 197.53 141.03 197.61 C 145.13 187.08 150.80 177.22 157.18 167.91 Z"></path><path fill="#101c85" opacity="1.00" d=" M 222.32 167.84 C 281.50 167.85 340.68 167.76 399.87 167.88 C 406.30 177.16 412.01 187.03 416.02 197.61 C 376.46 197.45 336.89 197.76 297.34 197.46 C 294.07 195.54 291.38 192.59 287.71 191.30 C 279.51 188.11 271.64 183.61 262.77 182.55 C 258.20 182.04 253.57 181.61 248.96 181.94 C 244.77 182.12 242.06 185.64 239.06 188.08 C 235.31 184.99 230.45 186.16 226.03 186.15 C 223.31 186.32 222.21 183.26 222.52 181.02 C 222.84 176.63 225.07 171.90 222.32 167.84 Z"></path><path fill="#101c85" opacity="1.00" d=" M 138.73 203.71 C 141.79 203.17 144.91 203.50 148.00 203.44 C 176.71 203.44 205.42 203.48 234.13 203.42 C 232.86 208.69 229.92 213.39 228.81 218.71 C 227.86 223.46 228.18 228.35 228.68 233.14 C 196.29 233.23 163.90 233.22 131.51 233.15 C 132.69 223.10 135.16 213.16 138.73 203.71 Z"></path><path fill="#101c85" opacity="1.00" d=" M 301.12 203.38 C 340.25 203.55 379.38 203.39 418.50 203.46 C 421.65 213.14 424.50 223.01 425.56 233.17 C 399.09 233.13 372.61 233.36 346.16 233.06 C 344.05 230.43 342.44 227.32 339.59 225.36 C 332.30 220.01 323.48 217.29 314.77 215.28 C 311.56 214.46 308.09 214.38 305.11 212.82 C 302.79 210.22 302.35 206.54 301.12 203.38 Z"></path><path fill="#101c85" opacity="1.00" d=" M 486.38 207.40 C 487.06 206.25 487.26 203.97 489.06 204.16 C 513.71 204.08 538.36 204.15 563.00 204.13 C 577.46 204.19 592.00 203.73 606.36 205.79 C 613.86 206.96 621.90 209.00 627.16 214.88 C 631.66 219.66 633.26 226.64 632.03 233.01 C 629.69 245.96 621.26 257.19 610.61 264.64 C 599.50 272.71 586.21 277.10 572.77 279.32 C 577.16 281.46 582.47 282.32 585.76 286.26 C 589.65 291.04 593.05 296.48 594.34 302.60 C 597.25 314.74 600.76 326.73 603.47 338.92 C 583.27 338.96 563.08 338.93 542.88 338.94 C 539.02 326.42 535.62 313.76 531.96 301.17 C 530.54 296.58 529.67 291.40 526.14 287.87 C 521.40 283.89 514.84 284.15 509.02 284.11 C 501.39 301.89 494.28 319.90 486.81 337.74 C 486.34 339.39 484.29 338.78 483.05 338.97 C 466.20 338.89 449.34 338.99 432.49 338.91 C 439.62 320.46 447.49 302.29 454.92 283.95 C 465.39 258.43 475.97 232.95 486.38 207.40 M 530.51 231.39 C 526.91 240.57 523.10 249.66 519.29 258.76 C 530.45 258.37 541.71 259.53 552.77 257.57 C 557.48 256.92 562.32 256.06 566.37 253.40 C 571.04 250.54 575.03 245.70 575.17 240.01 C 575.32 237.07 573.26 234.44 570.58 233.44 C 565.33 231.39 559.56 231.44 554.01 231.34 C 546.17 231.36 538.34 231.26 530.51 231.39 Z"></path><path fill="#101c85" opacity="1.00" d=" M 835.25 204.19 C 851.31 204.07 867.38 204.14 883.44 204.15 C 877.29 220.66 869.81 236.66 863.68 253.17 C 873.23 248.14 882.92 242.98 893.61 240.83 C 903.57 238.87 913.96 238.24 923.99 240.10 C 931.38 241.55 939.21 245.59 941.82 253.14 C 944.12 260.51 941.99 268.37 939.35 275.35 C 931.91 293.58 924.38 311.76 916.90 329.96 C 915.52 332.90 914.82 336.25 912.83 338.85 C 896.81 339.04 880.77 338.95 864.75 338.88 C 872.03 320.33 879.93 302.02 887.37 283.53 C 888.47 280.38 889.48 276.88 888.42 273.59 C 887.43 270.88 884.60 269.42 881.94 268.88 C 872.70 267.08 862.64 270.36 856.27 277.29 C 852.60 281.23 850.06 286.06 847.92 290.96 C 841.24 306.94 834.82 323.03 828.04 338.96 C 811.99 338.88 795.94 339.01 779.90 338.90 C 798.16 293.92 816.87 249.12 835.25 204.19 Z"></path><path fill="#101c85" opacity="1.00" d=" M 130.52 239.17 C 163.88 238.96 197.26 238.97 230.62 239.17 C 232.00 241.77 233.72 244.16 235.61 246.40 C 240.10 251.84 243.75 258.23 249.85 262.10 C 252.37 263.63 254.64 265.69 255.22 268.72 C 213.50 268.94 171.77 268.72 130.05 268.83 C 129.98 258.94 129.86 249.05 130.52 239.17 Z"></path><path fill="#101c85" opacity="1.00" d=" M 346.07 239.06 C 372.90 239.11 399.72 238.90 426.54 239.16 C 427.22 248.98 427.25 258.84 426.49 268.65 C 395.74 269.01 364.98 268.70 334.23 268.81 C 335.04 264.92 335.69 260.98 335.90 257.01 C 336.10 254.05 336.11 250.69 338.41 248.46 C 341.20 245.53 344.19 242.70 346.07 239.06 Z"></path><path fill="#101c85" opacity="1.00" d=" M 684.56 242.55 C 704.36 238.36 724.79 238.53 744.91 239.75 C 755.13 240.57 766.40 241.45 774.45 248.56 C 781.22 254.94 780.33 265.64 777.63 273.74 C 772.61 286.29 767.33 298.74 762.24 311.27 C 760.23 316.32 757.81 321.23 756.51 326.53 C 755.49 330.62 756.17 334.86 756.78 338.96 C 741.60 338.82 726.41 339.13 711.23 338.80 C 710.29 334.95 710.32 330.99 710.95 327.10 C 696.18 335.91 679.18 340.59 662.01 340.98 C 651.21 341.21 639.77 341.18 629.94 336.07 C 623.87 332.86 619.42 326.02 620.65 318.98 C 622.75 306.61 632.60 296.83 643.72 291.82 C 659.14 285.08 676.14 283.96 692.55 281.29 C 705.37 279.41 718.17 277.24 730.61 273.58 C 731.31 270.58 732.94 266.95 730.80 264.18 C 728.55 261.86 725.04 261.65 722.02 261.39 C 714.63 261.14 707.01 261.46 700.05 264.17 C 695.54 265.93 692.06 269.41 688.75 272.82 C 673.98 271.63 659.19 270.49 644.44 269.06 C 652.99 254.70 668.57 246.02 684.56 242.55 M 701.99 297.02 C 694.77 298.45 687.43 299.72 680.59 302.52 C 676.02 304.55 671.07 308.42 671.23 313.93 C 671.41 317.84 675.66 319.65 679.04 320.02 C 689.40 321.24 700.03 318.28 708.82 312.80 C 715.92 308.39 719.92 300.60 722.28 292.84 C 715.49 294.10 708.80 295.89 701.99 297.02 Z"></path><path fill="#101c85" opacity="1.00" d=" M 1158.93 249.81 C 1180.33 239.48 1204.79 237.62 1228.17 239.81 C 1237.97 240.91 1248.15 242.82 1256.34 248.67 C 1262.67 253.08 1267.16 260.20 1267.83 267.95 C 1268.90 278.85 1264.71 289.25 1260.81 299.18 C 1228.39 299.62 1195.95 299.14 1163.52 299.43 C 1162.54 304.36 1161.65 310.41 1165.71 314.27 C 1171.85 320.21 1181.36 319.61 1189.13 318.06 C 1195.46 317.00 1200.67 313.10 1206.25 310.35 C 1221.50 311.02 1236.71 312.75 1251.97 313.46 C 1241.18 323.22 1228.45 331.00 1214.58 335.51 C 1199.22 340.26 1182.99 341.21 1167.00 341.04 C 1156.58 340.89 1145.96 340.21 1136.01 336.88 C 1127.50 334.04 1119.99 327.78 1116.63 319.35 C 1112.40 309.78 1114.57 298.82 1118.54 289.56 C 1126.00 271.53 1141.59 258.06 1158.93 249.81 M 1171.50 281.26 C 1187.31 281.54 1203.15 281.44 1218.97 281.32 C 1219.79 277.17 1220.78 272.74 1219.30 268.64 C 1217.88 264.81 1213.92 262.71 1210.15 261.88 C 1194.87 258.68 1178.01 267.02 1171.50 281.26 Z"></path><path fill="#101c85" opacity="1.00" d=" M 981.35 242.34 C 981.80 240.82 983.78 241.43 984.96 241.23 C 1000.03 241.30 1015.10 241.22 1030.18 241.27 C 1023.00 259.81 1015.03 278.03 1007.64 296.49 C 1006.56 299.64 1005.46 303.12 1006.51 306.44 C 1007.48 309.34 1010.50 310.92 1013.36 311.44 C 1023.27 313.19 1034.04 309.15 1040.21 301.16 C 1045.07 295.10 1047.69 287.69 1050.61 280.59 C 1055.91 267.87 1061.04 255.08 1066.37 242.38 C 1066.83 240.83 1068.76 241.40 1069.96 241.23 C 1084.99 241.30 1100.03 241.22 1115.06 241.27 C 1101.85 273.89 1088.34 306.39 1074.91 338.92 C 1059.91 338.94 1044.91 338.98 1029.90 338.90 C 1031.82 333.62 1034.25 328.55 1036.13 323.27 C 1024.17 331.42 1010.96 338.53 996.37 340.25 C 986.14 341.40 975.43 341.86 965.56 338.46 C 959.32 336.35 953.62 331.37 952.52 324.63 C 951.05 315.98 954.40 307.53 957.70 299.70 C 965.60 280.59 973.42 261.44 981.35 242.34 Z"></path><path fill="#101c85" opacity="1.00" d=" M 130.02 274.76 C 171.41 274.67 212.81 274.66 254.20 274.76 C 252.65 284.70 255.23 294.48 256.07 304.33 C 214.05 304.51 172.02 304.46 130.00 304.36 C 130.00 294.49 130.00 284.62 130.02 274.76 Z"></path><path fill="#101c85" opacity="1.00" d=" M 326.33 279.23 C 328.81 278.63 330.47 276.58 332.10 274.78 C 363.23 274.64 394.36 274.67 425.49 274.77 C 424.19 284.89 421.73 294.89 418.12 304.44 C 380.90 304.34 343.69 304.58 306.47 304.32 C 307.96 296.83 312.61 290.69 315.96 284.00 C 318.10 280.35 322.77 280.44 326.33 279.23 Z"></path><path fill="#101c85" opacity="1.00" d=" M 130.08 310.28 C 171.74 310.39 213.39 310.33 255.05 310.31 C 254.07 320.18 254.08 330.12 253.17 340.01 C 212.12 340.06 171.06 340.05 130.01 340.01 C 130.00 330.10 129.90 320.19 130.08 310.28 Z"></path><path fill="#101c85" opacity="1.00" d=" M 303.54 310.42 C 340.99 310.23 378.45 310.36 415.90 310.35 C 411.54 320.65 406.21 330.60 399.60 339.63 C 397.81 340.23 395.87 339.99 394.02 340.07 C 355.55 339.95 317.08 340.15 278.60 339.97 C 279.31 337.05 279.94 334.05 281.37 331.38 C 282.85 327.75 287.69 330.58 290.13 328.15 C 293.79 325.46 292.25 320.50 291.66 316.77 C 296.40 316.55 300.93 314.52 303.54 310.42 Z"></path><path fill="#101c85" opacity="1.00" d=" M 130.00 346.00 C 170.99 345.96 211.99 345.97 252.98 345.99 C 252.97 355.74 253.39 365.59 256.17 375.00 C 214.11 375.09 172.05 375.05 129.99 375.02 C 129.97 365.34 129.96 355.67 130.00 346.00 Z"></path><path fill="#101c85" opacity="1.00" d=" M 277.84 346.03 C 316.76 345.96 355.68 345.88 394.60 346.07 C 388.03 354.90 379.97 362.54 371.48 369.49 C 368.26 371.72 365.38 375.51 361.06 375.07 C 331.14 374.89 301.20 375.33 271.29 374.84 C 270.54 369.51 272.37 364.39 274.66 359.67 C 276.74 355.42 277.39 350.69 277.84 346.03 Z"></path><path fill="#101c85" opacity="1.00" d=" M 436.08 362.28 C 447.43 362.37 458.78 362.36 470.13 362.28 C 470.32 365.51 470.33 368.75 470.26 371.99 C 466.44 372.01 462.64 372.01 458.83 372.03 C 458.70 381.89 458.86 391.76 458.75 401.63 C 454.97 401.56 451.19 401.56 447.41 401.60 C 447.45 391.74 447.53 381.87 447.37 372.01 C 443.57 372.01 439.77 372.01 435.98 371.99 C 435.96 368.75 435.97 365.51 436.08 362.28 Z"></path><path fill="#101c85" opacity="1.00" d=" M 479.22 362.30 C 489.23 362.33 499.23 362.40 509.24 362.26 C 509.50 365.09 509.50 367.95 509.27 370.79 C 503.04 370.68 496.82 370.70 490.60 370.78 C 490.58 372.83 490.58 374.90 490.61 376.96 C 496.42 376.95 502.23 376.93 508.05 376.98 C 508.05 379.64 508.05 382.30 508.04 384.97 C 502.17 385.02 496.30 384.86 490.43 385.12 C 490.50 387.63 490.51 390.14 490.47 392.66 C 496.98 392.70 503.49 392.60 510.01 392.72 C 510.01 395.70 509.99 398.68 509.89 401.66 C 499.67 401.51 489.45 401.54 479.23 401.64 C 479.17 388.52 479.17 375.41 479.22 362.30 Z"></path><path fill="#101c85" opacity="1.00" d=" M 529.06 363.04 C 535.37 360.91 543.34 360.83 548.68 365.30 C 551.28 367.53 552.82 370.68 553.67 373.95 C 550.54 374.71 547.41 375.44 544.27 376.10 C 542.73 373.82 541.09 370.86 537.96 370.78 C 534.42 370.29 531.19 372.99 530.49 376.37 C 529.63 380.58 529.58 385.12 530.91 389.23 C 532.35 393.17 537.75 394.20 541.00 391.94 C 543.03 390.44 543.06 387.36 545.01 385.90 C 548.08 386.56 551.02 387.70 554.04 388.57 C 553.22 394.59 548.95 400.35 542.83 401.68 C 537.83 402.62 532.39 402.47 527.72 400.28 C 521.23 396.81 518.40 389.04 518.57 382.01 C 518.22 374.46 521.46 365.81 529.06 363.04 Z"></path><path fill="#101c85" opacity="1.00" d=" M 563.44 362.35 C 566.84 362.36 570.25 362.14 573.65 362.42 C 579.07 368.81 582.45 376.77 587.72 383.33 C 587.94 376.32 587.58 369.30 587.94 362.29 C 591.47 362.33 595.01 362.33 598.55 362.35 C 598.42 375.42 598.43 388.50 598.55 401.57 C 594.96 401.46 591.30 401.96 587.76 401.27 C 582.95 394.61 579.18 387.23 574.23 380.66 C 573.95 387.65 574.42 394.65 573.94 401.64 C 570.43 401.57 566.93 401.56 563.44 401.58 C 563.55 388.51 563.55 375.43 563.44 362.35 Z"></path><path fill="#101c85" opacity="1.00" d=" M 621.33 362.35 C 629.37 360.34 639.61 362.31 643.69 370.28 C 647.28 377.89 647.31 387.66 642.90 394.95 C 637.92 402.72 627.16 403.58 619.11 400.87 C 611.20 397.96 607.79 388.85 608.33 380.98 C 608.14 372.87 612.95 364.15 621.33 362.35 M 624.40 371.38 C 621.01 372.74 619.86 376.63 619.71 379.96 C 619.56 383.48 619.55 387.36 621.58 390.40 C 624.53 394.64 632.31 393.83 633.89 388.74 C 635.24 384.38 635.46 379.46 633.86 375.14 C 632.44 371.49 627.90 369.97 624.40 371.38 Z"></path><path fill="#101c85" opacity="1.00" d=" M 656.12 362.28 C 659.81 362.35 663.50 362.34 667.20 362.27 C 667.64 372.12 667.36 381.99 667.34 391.85 C 673.23 392.01 679.11 391.88 685.00 391.97 C 685.01 395.20 685.01 398.43 684.89 401.66 C 675.31 401.51 665.72 401.53 656.14 401.65 C 655.97 388.53 656.01 375.40 656.12 362.28 Z"></path><path fill="#101c85" opacity="1.00" d=" M 706.30 362.18 C 711.95 361.09 718.26 361.58 723.14 364.88 C 727.68 368.06 730.01 373.57 730.30 378.98 C 730.72 385.34 729.96 392.50 725.22 397.23 C 720.23 402.57 712.07 402.94 705.35 401.51 C 698.92 400.12 694.24 394.24 693.10 387.94 C 692.13 382.51 692.27 376.68 694.51 371.57 C 696.62 366.77 701.14 363.17 706.30 362.18 M 708.42 371.45 C 705.17 372.87 704.06 376.65 703.94 379.92 C 703.81 383.40 703.71 387.23 705.70 390.27 C 708.53 394.54 716.33 394.00 718.02 388.93 C 719.42 384.70 719.51 379.93 718.26 375.65 C 717.08 371.60 712.13 369.81 708.42 371.45 Z"></path><path fill="#101c85" opacity="1.00" d=" M 739.48 376.19 C 740.66 369.68 745.53 363.68 752.18 362.30 C 756.92 361.39 761.91 361.38 766.62 362.50 C 771.38 363.76 774.68 368.15 775.52 372.87 C 772.06 373.33 768.63 374.60 765.14 374.39 C 763.32 372.72 761.72 370.18 758.93 370.30 C 755.01 369.86 751.47 372.88 750.78 376.66 C 749.95 381.05 749.77 385.96 751.88 390.03 C 754.50 394.53 760.95 394.36 764.91 391.84 C 766.78 391.07 765.96 388.88 766.16 387.34 C 763.67 387.32 761.19 387.31 758.72 387.26 C 758.66 384.56 758.67 381.86 758.76 379.17 C 764.52 379.21 770.29 379.19 776.07 379.18 C 776.21 384.78 776.14 390.37 776.14 395.97 C 771.68 399.14 766.67 401.93 761.06 402.11 C 755.29 402.53 748.76 401.86 744.48 397.52 C 739.06 391.98 738.12 383.50 739.48 376.19 Z"></path><path fill="#101c85" opacity="1.00" d=" M 820.36 362.35 C 824.48 362.31 828.61 362.33 832.74 362.33 C 837.12 375.44 842.28 388.32 846.16 401.60 C 842.29 401.59 838.44 401.59 834.58 401.51 C 833.99 399.38 833.39 397.26 832.82 395.13 C 828.56 395.03 824.30 395.06 820.04 395.03 C 819.40 397.17 818.82 399.32 818.27 401.48 C 814.48 401.60 810.68 401.60 806.89 401.59 C 810.96 388.37 816.01 375.47 820.36 362.35 M 822.50 386.34 C 825.03 386.56 827.57 386.62 830.12 386.65 C 829.33 381.97 827.83 377.47 826.54 372.93 C 824.87 377.30 823.81 381.86 822.50 386.34 Z"></path><path fill="#101c85" opacity="1.00" d=" M 874.86 362.28 C 884.88 362.37 894.89 362.36 904.91 362.28 C 904.97 365.11 904.97 367.93 904.93 370.77 C 898.62 370.71 892.31 370.68 886.00 370.78 C 885.99 372.83 886.00 374.89 886.01 376.96 C 891.89 376.98 897.76 376.84 903.64 377.10 C 903.58 379.69 903.58 382.28 903.64 384.87 C 897.75 385.07 891.86 384.93 885.98 384.99 C 885.99 387.57 886.01 390.14 886.08 392.72 C 892.57 392.72 899.08 392.43 905.58 392.91 C 905.49 395.80 905.49 398.69 905.55 401.59 C 895.33 401.59 885.11 401.50 874.90 401.65 C 874.52 388.53 874.59 375.39 874.86 362.28 Z"></path><path fill="#101c85" opacity="1.00" d=" M 915.40 362.33 C 918.87 362.33 922.34 362.34 925.82 362.28 C 930.70 369.12 934.54 376.65 939.69 383.30 C 939.87 376.29 939.50 369.28 939.89 362.28 C 943.32 362.34 946.76 362.34 950.21 362.27 C 950.64 375.32 950.35 388.39 950.35 401.45 C 946.92 401.53 943.48 401.75 940.06 401.42 C 934.80 394.96 931.29 387.23 926.18 380.64 C 925.88 387.64 926.27 394.65 925.90 401.65 C 922.40 401.56 918.90 401.56 915.40 401.60 C 915.47 388.51 915.49 375.42 915.40 362.33 Z"></path><path fill="#101c85" opacity="1.00" d=" M 982.77 362.26 C 992.77 362.40 1002.78 362.33 1012.78 362.30 C 1012.80 365.11 1012.80 367.93 1012.79 370.75 C 1006.48 370.72 1000.17 370.67 993.87 370.78 C 993.85 372.83 993.86 374.89 993.88 376.95 C 999.71 376.96 1005.54 376.93 1011.38 376.97 C 1011.42 379.64 1011.42 382.31 1011.37 384.98 C 1005.53 384.98 999.69 384.96 993.85 384.99 C 993.84 387.56 993.88 390.14 994.00 392.71 C 1000.43 392.65 1006.87 392.62 1013.30 392.72 C 1013.34 395.63 1013.34 398.54 1013.32 401.46 C 1003.08 401.61 992.84 401.61 982.60 401.45 C 982.62 388.39 982.30 375.31 982.77 362.26 Z"></path><path fill="#101c85" opacity="1.00" d=" M 1023.31 362.31 C 1026.78 362.33 1030.27 362.34 1033.76 362.31 C 1038.54 369.44 1042.94 376.81 1047.65 383.99 C 1047.67 376.75 1047.38 369.50 1047.81 362.27 C 1051.24 362.34 1054.68 362.34 1058.12 362.28 C 1058.39 375.39 1058.46 388.53 1058.09 401.64 C 1054.56 401.57 1051.04 401.58 1047.53 401.53 C 1043.08 394.55 1038.87 387.41 1034.12 380.64 C 1033.78 387.64 1034.14 394.65 1033.87 401.65 C 1030.35 401.56 1026.83 401.56 1023.32 401.61 C 1023.30 388.51 1023.33 375.41 1023.31 362.31 Z"></path><path fill="#101c85" opacity="1.00" d=" M 1066.04 362.31 C 1069.94 362.33 1073.86 362.33 1077.77 362.32 C 1080.75 371.51 1082.81 381.02 1086.19 390.06 C 1088.82 380.80 1091.39 371.52 1094.19 362.31 C 1097.89 362.34 1101.60 362.32 1105.31 362.30 C 1101.30 375.56 1096.59 388.63 1091.84 401.64 C 1087.79 401.56 1083.74 401.61 1079.70 401.48 C 1075.28 388.38 1070.44 375.42 1066.04 362.31 Z"></path><path fill="#101c85" opacity="1.00" d=" M 1123.23 362.31 C 1127.35 362.34 1131.47 362.31 1135.59 362.37 C 1139.88 375.51 1144.92 388.40 1149.06 401.58 C 1145.15 401.58 1141.24 401.57 1137.35 401.57 C 1136.77 399.44 1136.21 397.32 1135.68 395.19 C 1131.43 395.00 1127.17 395.05 1122.93 395.07 C 1122.20 397.25 1121.52 399.45 1120.79 401.63 C 1117.12 401.54 1113.46 401.58 1109.80 401.62 C 1113.61 388.31 1118.78 375.41 1123.23 362.31 M 1125.22 386.61 C 1127.83 386.58 1130.45 386.57 1133.08 386.58 C 1131.98 381.99 1130.62 377.46 1129.34 372.93 C 1127.62 377.38 1126.56 382.04 1125.22 386.61 Z"></path><path fill="#101c85" opacity="1.00" d=" M 1162.95 363.03 C 1168.34 361.17 1174.54 361.08 1179.90 363.12 C 1184.08 364.70 1186.19 369.08 1186.57 373.31 C 1183.16 373.59 1179.76 373.80 1176.35 373.95 C 1175.26 372.05 1174.39 369.37 1171.86 369.08 C 1169.98 368.76 1167.25 368.94 1166.67 371.15 C 1166.02 372.57 1167.20 374.11 1168.63 374.39 C 1174.12 376.36 1180.61 376.71 1184.94 381.06 C 1190.19 386.67 1187.92 396.79 1181.21 400.19 C 1175.85 402.86 1169.44 402.61 1163.76 401.26 C 1158.10 399.89 1154.87 393.98 1154.85 388.47 C 1158.35 388.28 1161.87 388.03 1165.39 388.13 C 1166.01 390.12 1166.44 392.53 1168.47 393.63 C 1170.92 395.02 1174.79 394.91 1176.40 392.27 C 1177.53 390.22 1176.32 387.51 1174.10 386.87 C 1168.55 384.73 1161.68 384.27 1157.84 379.14 C 1153.91 373.71 1156.70 365.27 1162.95 363.03 Z"></path><path fill="#101c85" opacity="1.00" d=" M 1197.30 362.31 C 1207.40 362.36 1217.51 362.32 1227.62 362.33 C 1227.57 365.12 1227.57 367.92 1227.62 370.71 C 1221.30 370.76 1214.99 370.66 1208.69 370.78 C 1208.65 372.83 1208.65 374.89 1208.68 376.95 C 1214.49 376.96 1220.32 376.93 1226.14 376.98 C 1226.15 379.64 1226.16 382.30 1226.15 384.96 C 1220.31 384.99 1214.48 384.96 1208.65 384.99 C 1208.61 387.57 1208.64 390.15 1208.80 392.73 C 1215.22 392.63 1221.64 392.63 1228.06 392.72 C 1228.07 395.70 1228.04 398.67 1227.91 401.65 C 1217.71 401.51 1207.50 401.56 1197.31 401.62 C 1197.28 388.52 1197.30 375.41 1197.30 362.31 Z"></path><path fill="#101c85" opacity="1.00" d=" M 1242.77 363.81 C 1248.10 361.00 1254.67 361.17 1260.36 362.74 C 1265.08 364.10 1267.59 368.85 1268.01 373.47 C 1264.50 373.61 1261.00 373.83 1257.50 373.86 C 1256.73 369.48 1252.23 368.08 1248.44 369.54 C 1248.27 370.91 1248.15 372.29 1248.08 373.68 C 1254.20 376.31 1261.82 376.22 1266.61 381.41 C 1271.74 387.43 1268.83 397.70 1261.63 400.66 C 1256.12 402.82 1249.76 402.67 1244.17 400.93 C 1238.94 399.22 1236.41 393.61 1235.99 388.50 C 1239.53 388.31 1243.08 388.07 1246.64 388.01 C 1247.32 389.94 1247.76 392.22 1249.56 393.48 C 1251.81 394.94 1255.02 394.82 1257.19 393.19 C 1258.76 391.32 1258.36 388.00 1255.94 387.07 C 1250.82 384.83 1244.68 384.60 1240.45 380.59 C 1235.50 376.01 1236.84 366.93 1242.77 363.81 Z"></path><path fill="#101c85" opacity="1.00" d=" M 787.01 362.49 C 790.79 362.30 794.59 362.30 798.38 362.46 C 798.33 375.52 798.74 388.61 798.17 401.66 C 794.49 401.55 790.81 401.54 787.14 401.65 C 786.91 388.59 787.15 375.54 787.01 362.49 Z"></path><path fill="#101c85" opacity="1.00" d=" M 129.99 381.01 C 172.97 380.97 215.95 380.98 258.93 381.00 C 262.37 386.05 266.95 390.80 273.01 392.47 C 276.25 392.78 279.15 390.95 281.77 389.28 C 279.68 386.54 277.50 383.87 275.50 381.07 C 301.80 380.97 328.12 380.85 354.42 381.14 C 331.40 395.48 304.03 402.36 276.99 402.21 C 227.99 402.18 178.99 402.23 129.98 402.11 C 129.95 395.07 129.95 388.04 129.99 381.01 Z"></path></g></svg> 